<svg xmlns="http://www.w3.org/2000/svg" version="1.1" xmlns:xlink="http://www.w3.org/1999/xlink" width="200" height="200"><svg xmlns="http://www.w3.org/2000/svg" version="1.1" xmlns:xlink="http://www.w3.org/1999/xlink" viewBox="0 0 200 200"><rect width="200" height="200" fill="url('#gradient')"></rect><defs><linearGradient id="SvgjsLinearGradient1008" gradientTransform="rotate(45 0.5 0.5)"><stop offset="0%" stop-color="#8da0ac"></stop><stop offset="100%" stop-color="#ffffff"></stop></linearGradient></defs><g><g fill="#1b3855" transform="matrix(3.7755854509217737,0,0,3.7755854509217737,21.95481940005986,126.84378792663445)" stroke="#ffffff" stroke-width="0.2"><path d="M5.75 0L1.07 0L1.07-14.22L5.65-14.22Q7.54-14.22 9.04-13.36Q10.55-12.51 11.39-10.95Q12.24-9.39 12.25-7.46L12.25-7.46L12.25-6.81Q12.25-4.85 11.42-3.31Q10.60-1.76 9.10-0.88Q7.60-0.01 5.75 0L5.75 0ZM5.65-11.57L4.50-11.57L4.50-2.64L5.69-2.64Q7.17-2.64 7.96-3.69Q8.75-4.74 8.75-6.81L8.75-6.81L8.75-7.42Q8.75-9.48 7.96-10.53Q7.17-11.57 5.65-11.57L5.65-11.57ZM20.28-7.40L20.28-4.85L14.41-4.85L14.41-7.40L20.28-7.40ZM31.90 0L31.07-2.66L26.38-2.66L25.56 0L21.89 0L27.11-14.22L30.33-14.22L35.59 0L31.90 0ZM28.72-10.23L27.20-5.30L30.25-5.30L28.72-10.23ZM40.27-14.22L40.27 0L36.86 0L36.86-14.22L40.27-14.22Z"></path></g></g></svg><style>@media (prefers-color-scheme: light) { :root { filter: none; } }
@media (prefers-color-scheme: dark) { :root { filter: none; } }
</style></svg>