<svg xmlns="http://www.w3.org/2000/svg" viewBox="0 17.190000534057617 431.489990234375 36.73999786376953" data-asc="1.06884765625" width="431.489990234375" height="36.73999786376953"><defs/><g fill="#1b1e1e"><g transform="translate(0, 0)"><path d="M27.15 35.25Q27.15 41.24 25.04 45.29Q22.92 49.34 18.79 51.39Q14.65 53.44 8.54 53.44L0 53.44L0 17.75L9.67 17.75Q15.38 17.75 19.26 19.75Q23.14 21.75 25.15 25.65Q27.15 29.54 27.15 35.25M24.51 35.35Q24.51 30.25 22.85 26.83Q21.19 23.41 17.77 21.69Q14.36 19.97 9.11 19.97L2.51 19.97L2.51 51.22L8.42 51.22Q16.50 51.22 20.51 47.25Q24.51 43.29 24.51 35.35ZM54.81 53.44L35.30 53.44L35.30 17.75L54.81 17.75L54.81 20.02L37.82 20.02L37.82 33.54L53.86 33.54L53.86 35.82L37.82 35.82L37.82 51.17L54.81 51.17L54.81 53.44ZM78.37 53.44L65.26 20.48L65.14 20.48Q65.19 21.39 65.22 22.38Q65.26 23.36 65.28 24.44Q65.31 25.51 65.31 26.68L65.31 53.44L62.92 53.44L62.92 17.75L66.72 17.75L79.37 49.54L79.52 49.54L92.26 17.75L95.97 17.75L95.97 53.44L93.51 53.44L93.51 26.39Q93.51 25.44 93.53 24.44Q93.55 23.44 93.59 22.45Q93.63 21.46 93.68 20.53L93.53 20.53L80.37 53.44L78.37 53.44ZM136.11 35.55Q136.11 39.62 135.11 42.99Q134.11 46.36 132.10 48.80Q130.10 51.25 127.11 52.59Q124.12 53.93 120.14 53.93Q116.14 53.93 113.13 52.59Q110.13 51.25 108.14 48.79Q106.15 46.34 105.15 42.96Q104.15 39.58 104.15 35.50Q104.15 30.08 105.99 25.95Q107.84 21.83 111.44 19.51Q115.04 17.19 120.34 17.19Q125.42 17.19 128.94 19.40Q132.47 21.61 134.29 25.72Q136.11 29.83 136.11 35.55M106.79 35.52Q106.79 40.31 108.23 43.96Q109.67 47.61 112.65 49.66Q115.63 51.71 120.17 51.71Q124.76 51.71 127.71 49.68Q130.66 47.66 132.08 44.02Q133.50 40.38 133.50 35.55Q133.50 27.91 130.16 23.68Q126.83 19.46 120.34 19.46Q115.77 19.46 112.76 21.48Q109.74 23.51 108.26 27.12Q106.79 30.74 106.79 35.52ZM159.45 19.51Q156.03 19.51 153.34 20.67Q150.66 21.83 148.80 23.95Q146.95 26.07 145.97 29.02Q145.00 31.96 145.00 35.50Q145.00 40.38 146.53 44.03Q148.07 47.68 151.16 49.68Q154.25 51.68 158.86 51.68Q161.55 51.68 163.75 51.28Q165.94 50.88 167.82 50.24L167.82 52.44Q166.04 53.10 163.81 53.52Q161.57 53.93 158.62 53.93Q153.27 53.93 149.65 51.64Q146.02 49.34 144.19 45.19Q142.36 41.04 142.36 35.50Q142.36 31.52 143.51 28.19Q144.65 24.85 146.86 22.40Q149.07 19.95 152.25 18.59Q155.42 17.24 159.47 17.24Q162.04 17.24 164.37 17.74Q166.70 18.24 168.75 19.19L167.77 21.39Q165.80 20.41 163.72 19.96Q161.65 19.51 159.45 19.51ZM183.98 17.75Q188.23 17.75 191.08 18.68Q193.92 19.60 195.36 21.73Q196.80 23.85 196.80 27.47Q196.80 30.18 195.81 32.12Q194.82 34.06 193.09 35.30Q191.36 36.55 189.09 37.21L198.88 53.44L195.90 53.44L186.69 37.92L177.83 37.92L177.83 53.44L175.32 53.44L175.32 17.75L183.98 17.75M183.74 19.97L177.83 19.97L177.83 35.69L184.94 35.69Q189.31 35.69 191.76 33.59Q194.21 31.49 194.21 27.56Q194.21 23.24 191.63 21.61Q189.04 19.97 183.74 19.97ZM227.37 53.44L222.51 40.82L207.52 40.82L202.56 53.44L200 53.44L214.04 17.63L216.33 17.63L230.00 53.44L227.37 53.44M221.70 38.55L216.77 25.17Q216.58 24.66 216.30 23.85Q216.02 23.05 215.71 22.14Q215.41 21.24 215.11 20.43Q214.87 21.29 214.58 22.14Q214.28 23.00 214.01 23.79Q213.75 24.58 213.50 25.22L208.37 38.55L221.70 38.55ZM244.38 53.44L241.85 53.44L241.85 20.02L230.27 20.02L230.27 17.75L255.96 17.75L255.96 20.02L244.38 20.02L244.38 53.44ZM261.28 53.44L261.28 17.75L263.79 17.75L263.79 53.44L261.28 53.44ZM293.53 44.24Q293.53 47.44 291.92 49.60Q290.31 51.76 287.55 52.84Q284.79 53.93 281.30 53.93Q279.13 53.93 277.36 53.72Q275.59 53.52 274.16 53.17Q272.73 52.83 271.56 52.39L271.56 49.88Q273.46 50.61 275.96 51.16Q278.47 51.71 281.42 51.71Q284.20 51.71 286.36 50.90Q288.53 50.10 289.77 48.46Q291.02 46.83 291.02 44.34Q291.02 42.14 289.98 40.73Q288.94 39.33 286.87 38.32Q284.79 37.30 281.64 36.25Q279.44 35.50 277.65 34.66Q275.85 33.81 274.58 32.70Q273.32 31.59 272.64 30.02Q271.97 28.44 271.97 26.29Q271.97 23.34 273.47 21.33Q274.98 19.31 277.55 18.27Q280.13 17.24 283.35 17.24Q285.91 17.24 288.22 17.71Q290.53 18.19 292.68 19.14L291.80 21.31Q289.65 20.39 287.50 19.95Q285.35 19.51 283.25 19.51Q280.74 19.51 278.77 20.25Q276.81 21.00 275.66 22.49Q274.51 23.97 274.51 26.25Q274.51 28.59 275.57 30.03Q276.64 31.47 278.60 32.42Q280.57 33.37 283.25 34.28Q286.43 35.35 288.72 36.54Q291.02 37.72 292.27 39.53Q293.53 41.33 293.53 44.24ZM301.15 53.44L301.15 17.75L303.66 17.75L303.66 53.44L301.15 53.44ZM339.72 53.44L337.16 53.44L316.06 21.88L315.94 21.88Q315.99 23.19 316.03 24.55Q316.06 25.90 316.10 27.33Q316.14 28.76 316.14 30.27L316.14 53.44L313.75 53.44L313.75 17.75L316.33 17.75L337.35 49.22L337.48 49.22Q337.45 48.14 337.41 46.73Q337.38 45.31 337.34 43.82Q337.30 42.33 337.30 41.02L337.30 17.75L339.72 17.75L339.72 53.44ZM363.89 35.42L377.00 35.42L377.00 51.81Q374.44 52.88 371.53 53.41Q368.63 53.93 365.36 53.93Q359.67 53.93 355.77 51.77Q351.88 49.61 349.88 45.51Q347.88 41.41 347.88 35.64Q347.88 30.27 350.06 26.10Q352.25 21.92 356.32 19.56Q360.40 17.19 366.09 17.19Q369.02 17.19 371.62 17.72Q374.22 18.26 376.56 19.34L375.56 21.58Q373.24 20.51 370.84 19.97Q368.43 19.43 365.97 19.43Q361.13 19.43 357.65 21.50Q354.17 23.56 352.33 27.21Q350.49 30.86 350.49 35.62Q350.49 41.02 352.27 44.58Q354.05 48.14 357.48 49.93Q360.91 51.71 365.82 51.71Q368.51 51.71 370.64 51.32Q372.78 50.93 374.51 50.29L374.51 37.72L363.89 37.72L363.89 35.42ZM421.29 53.44L416.43 40.82L401.44 40.82L396.48 53.44L393.92 53.44L407.96 17.63L410.25 17.63L423.93 53.44L421.29 53.44M415.63 38.55L410.69 25.17Q410.50 24.66 410.22 23.85Q409.94 23.05 409.63 22.14Q409.33 21.24 409.03 20.43Q408.79 21.29 408.50 22.14Q408.20 23.00 407.93 23.79Q407.67 24.58 407.42 25.22L402.29 38.55L415.63 38.55ZM428.98 53.44L428.98 17.75L431.49 17.75L431.49 53.44L428.98 53.44Z"/></g></g></svg>