<svg xmlns="http://www.w3.org/2000/svg" viewBox="0 9.5 275.1499938964844 36" data-asc="0.9" width="275.1499938964844" height="36"><defs/><g fill="#000000"><g transform="translate(0, 0)"><path d="M0 10L8.40 10Q12.50 10 14.55 12.20Q16.60 14.40 16.60 18.65L16.60 36.35Q16.60 40.60 14.55 42.80Q12.50 45 8.40 45L0 45L0 10M8.30 40Q9.65 40 10.38 39.20Q11.10 38.40 11.10 36.60L11.10 18.40Q11.10 16.60 10.38 15.80Q9.65 15 8.30 15L5.50 15L5.50 40L8.30 40ZM20.30 10L35.30 10L35.30 15L25.80 15L25.80 24.25L33.35 24.25L33.35 29.25L25.80 29.25L25.80 40L35.30 40L35.30 45L20.30 45L20.30 10ZM38.45 10L46.30 10L49.80 35.05L49.90 35.05L53.40 10L61.25 10L61.25 45L56.05 45L56.05 18.50L55.95 18.50L51.95 45L47.35 45L43.35 18.50L43.25 18.50L43.25 45L38.45 45L38.45 10ZM73.30 45.50Q69.25 45.50 67.10 43.20Q64.95 40.90 64.95 36.70L64.95 18.30Q64.95 14.10 67.10 11.80Q69.25 9.50 73.30 9.50Q77.35 9.50 79.50 11.80Q81.65 14.10 81.65 18.30L81.65 36.70Q81.65 40.90 79.50 43.20Q77.35 45.50 73.30 45.50M73.30 40.50Q76.15 40.50 76.15 37.05L76.15 17.95Q76.15 14.50 73.30 14.50Q70.45 14.50 70.45 17.95L70.45 37.05Q70.45 40.50 73.30 40.50ZM93.10 45.50Q89.15 45.50 87.08 43.25Q85.00 41 85.00 36.90L85.00 18.10Q85.00 14 87.08 11.75Q89.15 9.50 93.10 9.50Q97.05 9.50 99.13 11.75Q101.20 14 101.20 18.10L101.20 21.80L96.00 21.80L96.00 17.75Q96.00 14.50 93.25 14.50Q90.50 14.50 90.50 17.75L90.50 37.30Q90.50 40.50 93.25 40.50Q96.00 40.50 96.00 37.30L96.00 31.95L101.20 31.95L101.20 36.90Q101.20 41 99.13 43.25Q97.05 45.50 93.10 45.50ZM104.50 10L112.65 10Q116.90 10 118.85 11.98Q120.80 13.95 120.80 18.05L120.80 20.20Q120.80 25.65 117.20 27.10L117.20 27.20Q119.20 27.80 120.03 29.65Q120.85 31.50 120.85 34.60L120.85 40.75Q120.85 42.25 120.95 43.17Q121.05 44.10 121.45 45L115.85 45Q115.55 44.15 115.45 43.40Q115.35 42.65 115.35 40.70L115.35 34.30Q115.35 31.90 114.58 30.95Q113.80 30 111.90 30L110.00 30L110.00 45L104.50 45L104.50 10M112.00 25Q113.65 25 114.48 24.15Q115.30 23.30 115.30 21.30L115.30 18.60Q115.30 16.70 114.63 15.85Q113.95 15 112.50 15L110.00 15L110.00 25L112.00 25ZM128.90 10L136.35 10L142.05 45L136.55 45L135.55 38.05L135.55 38.15L129.30 38.15L128.30 45L123.20 45L128.90 10M134.90 33.40L132.45 16.10L132.35 16.10L129.95 33.40L134.90 33.40ZM149.00 15L143.25 15L143.25 10L160.25 10L160.25 15L154.50 15L154.50 45L149.00 45L149.00 15ZM162.90 10L168.40 10L168.40 45L162.90 45L162.90 10ZM179.65 45.50Q175.65 45.50 173.60 43.23Q171.55 40.95 171.55 36.70L171.55 34.70L176.75 34.70L176.75 37.10Q176.75 40.50 179.60 40.50Q181.00 40.50 181.73 39.67Q182.45 38.85 182.45 37Q182.45 34.80 181.45 33.13Q180.45 31.45 177.75 29.10Q174.35 26.10 173.00 23.67Q171.65 21.25 171.65 18.20Q171.65 14.05 173.75 11.77Q175.85 9.50 179.85 9.50Q183.80 9.50 185.83 11.77Q187.85 14.05 187.85 18.30L187.85 19.75L182.65 19.75L182.65 17.95Q182.65 16.15 181.95 15.32Q181.25 14.50 179.90 14.50Q177.15 14.50 177.15 17.85Q177.15 19.75 178.18 21.40Q179.20 23.05 181.90 25.40Q185.35 28.40 186.65 30.85Q187.95 33.30 187.95 36.60Q187.95 40.90 185.83 43.20Q183.70 45.50 179.65 45.50ZM191.10 10L196.60 10L196.60 45L191.10 45L191.10 10ZM200.70 10L207.60 10L212.95 30.95L213.05 30.95L213.05 10L217.95 10L217.95 45L212.30 45L205.70 19.45L205.60 19.45L205.60 45L200.70 45L200.70 10ZM229.85 45.50Q225.85 45.50 223.75 43.23Q221.65 40.95 221.65 36.70L221.65 18.30Q221.65 14.05 223.75 11.77Q225.85 9.50 229.85 9.50Q233.85 9.50 235.95 11.77Q238.05 14.05 238.05 18.30L238.05 21.30L232.85 21.30L232.85 17.95Q232.85 14.50 230 14.50Q227.15 14.50 227.15 17.95L227.15 37.10Q227.15 40.50 230 40.50Q232.85 40.50 232.85 37.10L232.85 30.25L230.10 30.25L230.10 25.25L238.05 25.25L238.05 36.70Q238.05 40.95 235.95 43.23Q233.85 45.50 229.85 45.50ZM253.85 10L261.30 10L267 45L261.50 45L260.50 38.05L260.50 38.15L254.25 38.15L253.25 45L248.15 45L253.85 10M259.85 33.40L257.40 16.10L257.30 16.10L254.90 33.40L259.85 33.40ZM269.65 10L275.15 10L275.15 45L269.65 45L269.65 10Z"/></g></g></svg>